<svg xmlns="http://www.w3.org/2000/svg" width="24" height="24" fill="none" viewBox="0 0 24 24"><path stroke="#212B3D" stroke-linecap="round" stroke-linejoin="round" stroke-width="1.5" d="M0.75 15V20.25L6 23.25L9.75 21.107"/><path stroke="#212B3D" stroke-linecap="round" stroke-linejoin="round" stroke-width="1.5" d="M6 23.25V18"/><path stroke="#212B3D" stroke-linecap="round" stroke-linejoin="round" stroke-width="1.5" d="M18 12L12.75 15L18 18L23.25 15L18 12Z"/><path stroke="#212B3D" stroke-linecap="round" stroke-linejoin="round" stroke-width="1.5" d="M12.75 15V20.25L18 23.25L23.25 20.25V15"/><path stroke="#212B3D" stroke-linecap="round" stroke-linejoin="round" stroke-width="1.5" d="M18 18V23.25"/><path stroke="#212B3D" stroke-linecap="round" stroke-linejoin="round" stroke-width="1.5" d="M12 0.75L6.75 3.75L12 6.75L17.25 3.75L12 0.75Z"/><path stroke="#212B3D" stroke-linecap="round" stroke-linejoin="round" stroke-width="1.5" d="M6.75 3.75V9L12 12L17.25 9V3.75"/><path stroke="#212B3D" stroke-linecap="round" stroke-linejoin="round" stroke-width="1.5" d="M12 6.75V12"/><path stroke="#212B3D" stroke-linecap="round" stroke-linejoin="round" stroke-width="1.5" d="M9.75 14.143L6 12L0.75 15L6 18L9 16.286"/></svg>